<?xml version="1.0" standalone="no"?><!DOCTYPE svg PUBLIC "-//W3C//DTD SVG 1.1//EN" "http://www.w3.org/Graphics/SVG/1.1/DTD/svg11.dtd"><svg t="1737367472053" class="icon" viewBox="0 0 1024 1024" version="1.1" xmlns="http://www.w3.org/2000/svg" p-id="36758" width="20" height="20" xmlns:xlink="http://www.w3.org/1999/xlink"><path d="M832 192a64 64 0 0 1 64 64v512a64 64 0 0 1-51.84 62.848L342.592 329.344 320 306.752l-22.656 22.592L128 498.752V256a64 64 0 0 1 64-64h640zM128 768V589.248l192-192L754.752 832H192a64 64 0 0 1-64-64zM192 128a128 128 0 0 0-128 128v512a128 128 0 0 0 128 128h640a128 128 0 0 0 128-128V256a128 128 0 0 0-128-128H192z m544 384a96 96 0 1 0 0-192 96 96 0 0 0 0 192z" p-id="36759" fill="#3B3E55"></path></svg>